<?xml version="1.0" encoding="utf-8" standalone="no"?>
<!DOCTYPE svg PUBLIC "-//W3C//DTD SVG 1.1//EN"
  "http://www.w3.org/Graphics/SVG/1.1/DTD/svg11.dtd">
<svg height="345.6pt" version="1.1" viewBox="0 0 460.8 345.6" width="460.8pt" xmlns="http://www.w3.org/2000/svg" xmlns:xlink="http://www.w3.org/1999/xlink">
 <metadata>
  <rdf:RDF xmlns:cc="http://creativecommons.org/ns#" xmlns:dc="http://purl.org/dc/elements/1.1/" xmlns:rdf="http://www.w3.org/1999/02/22-rdf-syntax-ns#">
   <cc:Work>
    <dc:type rdf:resource="http://purl.org/dc/dcmitype/StillImage"/>
    <dc:date>2021-07-09T15:49:27.247236</dc:date>
    <dc:format>image/svg+xml</dc:format>
    <dc:creator>
     <cc:Agent>
      <dc:title>Matplotlib v3.4.2, https://matplotlib.org/</dc:title>
     </cc:Agent>
    </dc:creator>
   </cc:Work>
  </rdf:RDF>
 </metadata>
 <defs>
  <style type="text/css">*{stroke-linecap:butt;stroke-linejoin:round;}</style>
 </defs>
 <g id="figure_1">
  <g id="patch_1">
   <path d="M 0 345.6 
L 460.8 345.6 
L 460.8 0 
L 0 0 
z
" style="fill:#ffffff;"/>
  </g>
  <g id="axes_1">
   <g id="patch_2">
    <path d="M 57.6 276.48 
L 414.72 276.48 
L 414.72 41.472 
L 57.6 41.472 
z
" style="fill:#ffffff;"/>
   </g>
   <g id="matplotlib.axis_1">
    <g id="xtick_1">
     <g id="line2d_1">
      <defs>
       <path d="M 0 0 
L 0 3.5 
" id="mf03d5a33d5" style="stroke:#000000;stroke-width:0.8;"/>
      </defs>
      <g>
       <use style="stroke:#000000;stroke-width:0.8;" x="93.246348" xlink:href="#mf03d5a33d5" y="276.48"/>
      </g>
     </g>
     <g id="text_1">
      <!-- 07-06 21:30 -->
      <g transform="translate(39.331593 320.587784)rotate(-30)scale(0.1 -0.1)">
       <defs>
        <path d="M 2034 4250 
Q 1547 4250 1301 3770 
Q 1056 3291 1056 2328 
Q 1056 1369 1301 889 
Q 1547 409 2034 409 
Q 2525 409 2770 889 
Q 3016 1369 3016 2328 
Q 3016 3291 2770 3770 
Q 2525 4250 2034 4250 
z
M 2034 4750 
Q 2819 4750 3233 4129 
Q 3647 3509 3647 2328 
Q 3647 1150 3233 529 
Q 2819 -91 2034 -91 
Q 1250 -91 836 529 
Q 422 1150 422 2328 
Q 422 3509 836 4129 
Q 1250 4750 2034 4750 
z
" id="DejaVuSans-30" transform="scale(0.015625)"/>
        <path d="M 525 4666 
L 3525 4666 
L 3525 4397 
L 1831 0 
L 1172 0 
L 2766 4134 
L 525 4134 
L 525 4666 
z
" id="DejaVuSans-37" transform="scale(0.015625)"/>
        <path d="M 313 2009 
L 1997 2009 
L 1997 1497 
L 313 1497 
L 313 2009 
z
" id="DejaVuSans-2d" transform="scale(0.015625)"/>
        <path d="M 2113 2584 
Q 1688 2584 1439 2293 
Q 1191 2003 1191 1497 
Q 1191 994 1439 701 
Q 1688 409 2113 409 
Q 2538 409 2786 701 
Q 3034 994 3034 1497 
Q 3034 2003 2786 2293 
Q 2538 2584 2113 2584 
z
M 3366 4563 
L 3366 3988 
Q 3128 4100 2886 4159 
Q 2644 4219 2406 4219 
Q 1781 4219 1451 3797 
Q 1122 3375 1075 2522 
Q 1259 2794 1537 2939 
Q 1816 3084 2150 3084 
Q 2853 3084 3261 2657 
Q 3669 2231 3669 1497 
Q 3669 778 3244 343 
Q 2819 -91 2113 -91 
Q 1303 -91 875 529 
Q 447 1150 447 2328 
Q 447 3434 972 4092 
Q 1497 4750 2381 4750 
Q 2619 4750 2861 4703 
Q 3103 4656 3366 4563 
z
" id="DejaVuSans-36" transform="scale(0.015625)"/>
        <path id="DejaVuSans-20" transform="scale(0.015625)"/>
        <path d="M 1228 531 
L 3431 531 
L 3431 0 
L 469 0 
L 469 531 
Q 828 903 1448 1529 
Q 2069 2156 2228 2338 
Q 2531 2678 2651 2914 
Q 2772 3150 2772 3378 
Q 2772 3750 2511 3984 
Q 2250 4219 1831 4219 
Q 1534 4219 1204 4116 
Q 875 4013 500 3803 
L 500 4441 
Q 881 4594 1212 4672 
Q 1544 4750 1819 4750 
Q 2544 4750 2975 4387 
Q 3406 4025 3406 3419 
Q 3406 3131 3298 2873 
Q 3191 2616 2906 2266 
Q 2828 2175 2409 1742 
Q 1991 1309 1228 531 
z
" id="DejaVuSans-32" transform="scale(0.015625)"/>
        <path d="M 794 531 
L 1825 531 
L 1825 4091 
L 703 3866 
L 703 4441 
L 1819 4666 
L 2450 4666 
L 2450 531 
L 3481 531 
L 3481 0 
L 794 0 
L 794 531 
z
" id="DejaVuSans-31" transform="scale(0.015625)"/>
        <path d="M 750 794 
L 1409 794 
L 1409 0 
L 750 0 
L 750 794 
z
M 750 3309 
L 1409 3309 
L 1409 2516 
L 750 2516 
L 750 3309 
z
" id="DejaVuSans-3a" transform="scale(0.015625)"/>
        <path d="M 2597 2516 
Q 3050 2419 3304 2112 
Q 3559 1806 3559 1356 
Q 3559 666 3084 287 
Q 2609 -91 1734 -91 
Q 1441 -91 1130 -33 
Q 819 25 488 141 
L 488 750 
Q 750 597 1062 519 
Q 1375 441 1716 441 
Q 2309 441 2620 675 
Q 2931 909 2931 1356 
Q 2931 1769 2642 2001 
Q 2353 2234 1838 2234 
L 1294 2234 
L 1294 2753 
L 1863 2753 
Q 2328 2753 2575 2939 
Q 2822 3125 2822 3475 
Q 2822 3834 2567 4026 
Q 2313 4219 1838 4219 
Q 1578 4219 1281 4162 
Q 984 4106 628 3988 
L 628 4550 
Q 988 4650 1302 4700 
Q 1616 4750 1894 4750 
Q 2613 4750 3031 4423 
Q 3450 4097 3450 3541 
Q 3450 3153 3228 2886 
Q 3006 2619 2597 2516 
z
" id="DejaVuSans-33" transform="scale(0.015625)"/>
       </defs>
       <use xlink:href="#DejaVuSans-30"/>
       <use x="63.623047" xlink:href="#DejaVuSans-37"/>
       <use x="127.246094" xlink:href="#DejaVuSans-2d"/>
       <use x="163.330078" xlink:href="#DejaVuSans-30"/>
       <use x="226.953125" xlink:href="#DejaVuSans-36"/>
       <use x="290.576172" xlink:href="#DejaVuSans-20"/>
       <use x="322.363281" xlink:href="#DejaVuSans-32"/>
       <use x="385.986328" xlink:href="#DejaVuSans-31"/>
       <use x="449.609375" xlink:href="#DejaVuSans-3a"/>
       <use x="483.300781" xlink:href="#DejaVuSans-33"/>
       <use x="546.923828" xlink:href="#DejaVuSans-30"/>
      </g>
     </g>
    </g>
    <g id="xtick_2">
     <g id="line2d_2">
      <g>
       <use style="stroke:#000000;stroke-width:0.8;" x="138.70374" xlink:href="#mf03d5a33d5" y="276.48"/>
      </g>
     </g>
     <g id="text_2">
      <!-- 07-06 21:45 -->
      <g transform="translate(84.788986 320.587784)rotate(-30)scale(0.1 -0.1)">
       <defs>
        <path d="M 2419 4116 
L 825 1625 
L 2419 1625 
L 2419 4116 
z
M 2253 4666 
L 3047 4666 
L 3047 1625 
L 3713 1625 
L 3713 1100 
L 3047 1100 
L 3047 0 
L 2419 0 
L 2419 1100 
L 313 1100 
L 313 1709 
L 2253 4666 
z
" id="DejaVuSans-34" transform="scale(0.015625)"/>
        <path d="M 691 4666 
L 3169 4666 
L 3169 4134 
L 1269 4134 
L 1269 2991 
Q 1406 3038 1543 3061 
Q 1681 3084 1819 3084 
Q 2600 3084 3056 2656 
Q 3513 2228 3513 1497 
Q 3513 744 3044 326 
Q 2575 -91 1722 -91 
Q 1428 -91 1123 -41 
Q 819 9 494 109 
L 494 744 
Q 775 591 1075 516 
Q 1375 441 1709 441 
Q 2250 441 2565 725 
Q 2881 1009 2881 1497 
Q 2881 1984 2565 2268 
Q 2250 2553 1709 2553 
Q 1456 2553 1204 2497 
Q 953 2441 691 2322 
L 691 4666 
z
" id="DejaVuSans-35" transform="scale(0.015625)"/>
       </defs>
       <use xlink:href="#DejaVuSans-30"/>
       <use x="63.623047" xlink:href="#DejaVuSans-37"/>
       <use x="127.246094" xlink:href="#DejaVuSans-2d"/>
       <use x="163.330078" xlink:href="#DejaVuSans-30"/>
       <use x="226.953125" xlink:href="#DejaVuSans-36"/>
       <use x="290.576172" xlink:href="#DejaVuSans-20"/>
       <use x="322.363281" xlink:href="#DejaVuSans-32"/>
       <use x="385.986328" xlink:href="#DejaVuSans-31"/>
       <use x="449.609375" xlink:href="#DejaVuSans-3a"/>
       <use x="483.300781" xlink:href="#DejaVuSans-34"/>
       <use x="546.923828" xlink:href="#DejaVuSans-35"/>
      </g>
     </g>
    </g>
    <g id="xtick_3">
     <g id="line2d_3">
      <g>
       <use style="stroke:#000000;stroke-width:0.8;" x="184.161132" xlink:href="#mf03d5a33d5" y="276.48"/>
      </g>
     </g>
     <g id="text_3">
      <!-- 07-06 22:00 -->
      <g transform="translate(130.246378 320.587784)rotate(-30)scale(0.1 -0.1)">
       <use xlink:href="#DejaVuSans-30"/>
       <use x="63.623047" xlink:href="#DejaVuSans-37"/>
       <use x="127.246094" xlink:href="#DejaVuSans-2d"/>
       <use x="163.330078" xlink:href="#DejaVuSans-30"/>
       <use x="226.953125" xlink:href="#DejaVuSans-36"/>
       <use x="290.576172" xlink:href="#DejaVuSans-20"/>
       <use x="322.363281" xlink:href="#DejaVuSans-32"/>
       <use x="385.986328" xlink:href="#DejaVuSans-32"/>
       <use x="449.609375" xlink:href="#DejaVuSans-3a"/>
       <use x="483.300781" xlink:href="#DejaVuSans-30"/>
       <use x="546.923828" xlink:href="#DejaVuSans-30"/>
      </g>
     </g>
    </g>
    <g id="xtick_4">
     <g id="line2d_4">
      <g>
       <use style="stroke:#000000;stroke-width:0.8;" x="229.618525" xlink:href="#mf03d5a33d5" y="276.48"/>
      </g>
     </g>
     <g id="text_4">
      <!-- 07-06 22:15 -->
      <g transform="translate(175.70377 320.587784)rotate(-30)scale(0.1 -0.1)">
       <use xlink:href="#DejaVuSans-30"/>
       <use x="63.623047" xlink:href="#DejaVuSans-37"/>
       <use x="127.246094" xlink:href="#DejaVuSans-2d"/>
       <use x="163.330078" xlink:href="#DejaVuSans-30"/>
       <use x="226.953125" xlink:href="#DejaVuSans-36"/>
       <use x="290.576172" xlink:href="#DejaVuSans-20"/>
       <use x="322.363281" xlink:href="#DejaVuSans-32"/>
       <use x="385.986328" xlink:href="#DejaVuSans-32"/>
       <use x="449.609375" xlink:href="#DejaVuSans-3a"/>
       <use x="483.300781" xlink:href="#DejaVuSans-31"/>
       <use x="546.923828" xlink:href="#DejaVuSans-35"/>
      </g>
     </g>
    </g>
    <g id="xtick_5">
     <g id="line2d_5">
      <g>
       <use style="stroke:#000000;stroke-width:0.8;" x="275.075917" xlink:href="#mf03d5a33d5" y="276.48"/>
      </g>
     </g>
     <g id="text_5">
      <!-- 07-06 22:30 -->
      <g transform="translate(221.161163 320.587784)rotate(-30)scale(0.1 -0.1)">
       <use xlink:href="#DejaVuSans-30"/>
       <use x="63.623047" xlink:href="#DejaVuSans-37"/>
       <use x="127.246094" xlink:href="#DejaVuSans-2d"/>
       <use x="163.330078" xlink:href="#DejaVuSans-30"/>
       <use x="226.953125" xlink:href="#DejaVuSans-36"/>
       <use x="290.576172" xlink:href="#DejaVuSans-20"/>
       <use x="322.363281" xlink:href="#DejaVuSans-32"/>
       <use x="385.986328" xlink:href="#DejaVuSans-32"/>
       <use x="449.609375" xlink:href="#DejaVuSans-3a"/>
       <use x="483.300781" xlink:href="#DejaVuSans-33"/>
       <use x="546.923828" xlink:href="#DejaVuSans-30"/>
      </g>
     </g>
    </g>
    <g id="xtick_6">
     <g id="line2d_6">
      <g>
       <use style="stroke:#000000;stroke-width:0.8;" x="320.533309" xlink:href="#mf03d5a33d5" y="276.48"/>
      </g>
     </g>
     <g id="text_6">
      <!-- 07-06 22:45 -->
      <g transform="translate(266.618555 320.587784)rotate(-30)scale(0.1 -0.1)">
       <use xlink:href="#DejaVuSans-30"/>
       <use x="63.623047" xlink:href="#DejaVuSans-37"/>
       <use x="127.246094" xlink:href="#DejaVuSans-2d"/>
       <use x="163.330078" xlink:href="#DejaVuSans-30"/>
       <use x="226.953125" xlink:href="#DejaVuSans-36"/>
       <use x="290.576172" xlink:href="#DejaVuSans-20"/>
       <use x="322.363281" xlink:href="#DejaVuSans-32"/>
       <use x="385.986328" xlink:href="#DejaVuSans-32"/>
       <use x="449.609375" xlink:href="#DejaVuSans-3a"/>
       <use x="483.300781" xlink:href="#DejaVuSans-34"/>
       <use x="546.923828" xlink:href="#DejaVuSans-35"/>
      </g>
     </g>
    </g>
    <g id="xtick_7">
     <g id="line2d_7">
      <g>
       <use style="stroke:#000000;stroke-width:0.8;" x="365.990701" xlink:href="#mf03d5a33d5" y="276.48"/>
      </g>
     </g>
     <g id="text_7">
      <!-- 07-06 23:00 -->
      <g transform="translate(312.075947 320.587784)rotate(-30)scale(0.1 -0.1)">
       <use xlink:href="#DejaVuSans-30"/>
       <use x="63.623047" xlink:href="#DejaVuSans-37"/>
       <use x="127.246094" xlink:href="#DejaVuSans-2d"/>
       <use x="163.330078" xlink:href="#DejaVuSans-30"/>
       <use x="226.953125" xlink:href="#DejaVuSans-36"/>
       <use x="290.576172" xlink:href="#DejaVuSans-20"/>
       <use x="322.363281" xlink:href="#DejaVuSans-32"/>
       <use x="385.986328" xlink:href="#DejaVuSans-33"/>
       <use x="449.609375" xlink:href="#DejaVuSans-3a"/>
       <use x="483.300781" xlink:href="#DejaVuSans-30"/>
       <use x="546.923828" xlink:href="#DejaVuSans-30"/>
      </g>
     </g>
    </g>
    <g id="xtick_8">
     <g id="line2d_8">
      <g>
       <use style="stroke:#000000;stroke-width:0.8;" x="411.448094" xlink:href="#mf03d5a33d5" y="276.48"/>
      </g>
     </g>
     <g id="text_8">
      <!-- 07-06 23:15 -->
      <g transform="translate(357.53334 320.587784)rotate(-30)scale(0.1 -0.1)">
       <use xlink:href="#DejaVuSans-30"/>
       <use x="63.623047" xlink:href="#DejaVuSans-37"/>
       <use x="127.246094" xlink:href="#DejaVuSans-2d"/>
       <use x="163.330078" xlink:href="#DejaVuSans-30"/>
       <use x="226.953125" xlink:href="#DejaVuSans-36"/>
       <use x="290.576172" xlink:href="#DejaVuSans-20"/>
       <use x="322.363281" xlink:href="#DejaVuSans-32"/>
       <use x="385.986328" xlink:href="#DejaVuSans-33"/>
       <use x="449.609375" xlink:href="#DejaVuSans-3a"/>
       <use x="483.300781" xlink:href="#DejaVuSans-31"/>
       <use x="546.923828" xlink:href="#DejaVuSans-35"/>
      </g>
     </g>
    </g>
    <g id="text_9">
     <!-- time -->
     <g transform="translate(224.863906 333.987283)scale(0.1 -0.1)">
      <defs>
       <path d="M 1172 4494 
L 1172 3500 
L 2356 3500 
L 2356 3053 
L 1172 3053 
L 1172 1153 
Q 1172 725 1289 603 
Q 1406 481 1766 481 
L 2356 481 
L 2356 0 
L 1766 0 
Q 1100 0 847 248 
Q 594 497 594 1153 
L 594 3053 
L 172 3053 
L 172 3500 
L 594 3500 
L 594 4494 
L 1172 4494 
z
" id="DejaVuSans-74" transform="scale(0.015625)"/>
       <path d="M 603 3500 
L 1178 3500 
L 1178 0 
L 603 0 
L 603 3500 
z
M 603 4863 
L 1178 4863 
L 1178 4134 
L 603 4134 
L 603 4863 
z
" id="DejaVuSans-69" transform="scale(0.015625)"/>
       <path d="M 3328 2828 
Q 3544 3216 3844 3400 
Q 4144 3584 4550 3584 
Q 5097 3584 5394 3201 
Q 5691 2819 5691 2113 
L 5691 0 
L 5113 0 
L 5113 2094 
Q 5113 2597 4934 2840 
Q 4756 3084 4391 3084 
Q 3944 3084 3684 2787 
Q 3425 2491 3425 1978 
L 3425 0 
L 2847 0 
L 2847 2094 
Q 2847 2600 2669 2842 
Q 2491 3084 2119 3084 
Q 1678 3084 1418 2786 
Q 1159 2488 1159 1978 
L 1159 0 
L 581 0 
L 581 3500 
L 1159 3500 
L 1159 2956 
Q 1356 3278 1631 3431 
Q 1906 3584 2284 3584 
Q 2666 3584 2933 3390 
Q 3200 3197 3328 2828 
z
" id="DejaVuSans-6d" transform="scale(0.015625)"/>
       <path d="M 3597 1894 
L 3597 1613 
L 953 1613 
Q 991 1019 1311 708 
Q 1631 397 2203 397 
Q 2534 397 2845 478 
Q 3156 559 3463 722 
L 3463 178 
Q 3153 47 2828 -22 
Q 2503 -91 2169 -91 
Q 1331 -91 842 396 
Q 353 884 353 1716 
Q 353 2575 817 3079 
Q 1281 3584 2069 3584 
Q 2775 3584 3186 3129 
Q 3597 2675 3597 1894 
z
M 3022 2063 
Q 3016 2534 2758 2815 
Q 2500 3097 2075 3097 
Q 1594 3097 1305 2825 
Q 1016 2553 972 2059 
L 3022 2063 
z
" id="DejaVuSans-65" transform="scale(0.015625)"/>
      </defs>
      <use xlink:href="#DejaVuSans-74"/>
      <use x="39.208984" xlink:href="#DejaVuSans-69"/>
      <use x="66.992188" xlink:href="#DejaVuSans-6d"/>
      <use x="164.404297" xlink:href="#DejaVuSans-65"/>
     </g>
    </g>
   </g>
   <g id="matplotlib.axis_2">
    <g id="ytick_1">
     <g id="line2d_9">
      <defs>
       <path d="M 0 0 
L -3.5 0 
" id="mf132eb8c0b" style="stroke:#000000;stroke-width:0.8;"/>
      </defs>
      <g>
       <use style="stroke:#000000;stroke-width:0.8;" x="57.6" xlink:href="#mf132eb8c0b" y="265.797818"/>
      </g>
     </g>
     <g id="text_10">
      <!-- 0 -->
      <g transform="translate(44.2375 269.597037)scale(0.1 -0.1)">
       <use xlink:href="#DejaVuSans-30"/>
      </g>
     </g>
    </g>
    <g id="ytick_2">
     <g id="line2d_10">
      <g>
       <use style="stroke:#000000;stroke-width:0.8;" x="57.6" xlink:href="#mf132eb8c0b" y="216.360438"/>
      </g>
     </g>
     <g id="text_11">
      <!-- 10000 -->
      <g transform="translate(18.7875 220.159657)scale(0.1 -0.1)">
       <use xlink:href="#DejaVuSans-31"/>
       <use x="63.623047" xlink:href="#DejaVuSans-30"/>
       <use x="127.246094" xlink:href="#DejaVuSans-30"/>
       <use x="190.869141" xlink:href="#DejaVuSans-30"/>
       <use x="254.492188" xlink:href="#DejaVuSans-30"/>
      </g>
     </g>
    </g>
    <g id="ytick_3">
     <g id="line2d_11">
      <g>
       <use style="stroke:#000000;stroke-width:0.8;" x="57.6" xlink:href="#mf132eb8c0b" y="166.923059"/>
      </g>
     </g>
     <g id="text_12">
      <!-- 20000 -->
      <g transform="translate(18.7875 170.722278)scale(0.1 -0.1)">
       <use xlink:href="#DejaVuSans-32"/>
       <use x="63.623047" xlink:href="#DejaVuSans-30"/>
       <use x="127.246094" xlink:href="#DejaVuSans-30"/>
       <use x="190.869141" xlink:href="#DejaVuSans-30"/>
       <use x="254.492188" xlink:href="#DejaVuSans-30"/>
      </g>
     </g>
    </g>
    <g id="ytick_4">
     <g id="line2d_12">
      <g>
       <use style="stroke:#000000;stroke-width:0.8;" x="57.6" xlink:href="#mf132eb8c0b" y="117.485679"/>
      </g>
     </g>
     <g id="text_13">
      <!-- 30000 -->
      <g transform="translate(18.7875 121.284898)scale(0.1 -0.1)">
       <use xlink:href="#DejaVuSans-33"/>
       <use x="63.623047" xlink:href="#DejaVuSans-30"/>
       <use x="127.246094" xlink:href="#DejaVuSans-30"/>
       <use x="190.869141" xlink:href="#DejaVuSans-30"/>
       <use x="254.492188" xlink:href="#DejaVuSans-30"/>
      </g>
     </g>
    </g>
    <g id="ytick_5">
     <g id="line2d_13">
      <g>
       <use style="stroke:#000000;stroke-width:0.8;" x="57.6" xlink:href="#mf132eb8c0b" y="68.048299"/>
      </g>
     </g>
     <g id="text_14">
      <!-- 40000 -->
      <g transform="translate(18.7875 71.847518)scale(0.1 -0.1)">
       <use xlink:href="#DejaVuSans-34"/>
       <use x="63.623047" xlink:href="#DejaVuSans-30"/>
       <use x="127.246094" xlink:href="#DejaVuSans-30"/>
       <use x="190.869141" xlink:href="#DejaVuSans-30"/>
       <use x="254.492188" xlink:href="#DejaVuSans-30"/>
      </g>
     </g>
    </g>
    <g id="text_15">
     <!-- covered code lines -->
     <g transform="translate(12.707812 205.879906)rotate(-90)scale(0.1 -0.1)">
      <defs>
       <path d="M 3122 3366 
L 3122 2828 
Q 2878 2963 2633 3030 
Q 2388 3097 2138 3097 
Q 1578 3097 1268 2742 
Q 959 2388 959 1747 
Q 959 1106 1268 751 
Q 1578 397 2138 397 
Q 2388 397 2633 464 
Q 2878 531 3122 666 
L 3122 134 
Q 2881 22 2623 -34 
Q 2366 -91 2075 -91 
Q 1284 -91 818 406 
Q 353 903 353 1747 
Q 353 2603 823 3093 
Q 1294 3584 2113 3584 
Q 2378 3584 2631 3529 
Q 2884 3475 3122 3366 
z
" id="DejaVuSans-63" transform="scale(0.015625)"/>
       <path d="M 1959 3097 
Q 1497 3097 1228 2736 
Q 959 2375 959 1747 
Q 959 1119 1226 758 
Q 1494 397 1959 397 
Q 2419 397 2687 759 
Q 2956 1122 2956 1747 
Q 2956 2369 2687 2733 
Q 2419 3097 1959 3097 
z
M 1959 3584 
Q 2709 3584 3137 3096 
Q 3566 2609 3566 1747 
Q 3566 888 3137 398 
Q 2709 -91 1959 -91 
Q 1206 -91 779 398 
Q 353 888 353 1747 
Q 353 2609 779 3096 
Q 1206 3584 1959 3584 
z
" id="DejaVuSans-6f" transform="scale(0.015625)"/>
       <path d="M 191 3500 
L 800 3500 
L 1894 563 
L 2988 3500 
L 3597 3500 
L 2284 0 
L 1503 0 
L 191 3500 
z
" id="DejaVuSans-76" transform="scale(0.015625)"/>
       <path d="M 2631 2963 
Q 2534 3019 2420 3045 
Q 2306 3072 2169 3072 
Q 1681 3072 1420 2755 
Q 1159 2438 1159 1844 
L 1159 0 
L 581 0 
L 581 3500 
L 1159 3500 
L 1159 2956 
Q 1341 3275 1631 3429 
Q 1922 3584 2338 3584 
Q 2397 3584 2469 3576 
Q 2541 3569 2628 3553 
L 2631 2963 
z
" id="DejaVuSans-72" transform="scale(0.015625)"/>
       <path d="M 2906 2969 
L 2906 4863 
L 3481 4863 
L 3481 0 
L 2906 0 
L 2906 525 
Q 2725 213 2448 61 
Q 2172 -91 1784 -91 
Q 1150 -91 751 415 
Q 353 922 353 1747 
Q 353 2572 751 3078 
Q 1150 3584 1784 3584 
Q 2172 3584 2448 3432 
Q 2725 3281 2906 2969 
z
M 947 1747 
Q 947 1113 1208 752 
Q 1469 391 1925 391 
Q 2381 391 2643 752 
Q 2906 1113 2906 1747 
Q 2906 2381 2643 2742 
Q 2381 3103 1925 3103 
Q 1469 3103 1208 2742 
Q 947 2381 947 1747 
z
" id="DejaVuSans-64" transform="scale(0.015625)"/>
       <path d="M 603 4863 
L 1178 4863 
L 1178 0 
L 603 0 
L 603 4863 
z
" id="DejaVuSans-6c" transform="scale(0.015625)"/>
       <path d="M 3513 2113 
L 3513 0 
L 2938 0 
L 2938 2094 
Q 2938 2591 2744 2837 
Q 2550 3084 2163 3084 
Q 1697 3084 1428 2787 
Q 1159 2491 1159 1978 
L 1159 0 
L 581 0 
L 581 3500 
L 1159 3500 
L 1159 2956 
Q 1366 3272 1645 3428 
Q 1925 3584 2291 3584 
Q 2894 3584 3203 3211 
Q 3513 2838 3513 2113 
z
" id="DejaVuSans-6e" transform="scale(0.015625)"/>
       <path d="M 2834 3397 
L 2834 2853 
Q 2591 2978 2328 3040 
Q 2066 3103 1784 3103 
Q 1356 3103 1142 2972 
Q 928 2841 928 2578 
Q 928 2378 1081 2264 
Q 1234 2150 1697 2047 
L 1894 2003 
Q 2506 1872 2764 1633 
Q 3022 1394 3022 966 
Q 3022 478 2636 193 
Q 2250 -91 1575 -91 
Q 1294 -91 989 -36 
Q 684 19 347 128 
L 347 722 
Q 666 556 975 473 
Q 1284 391 1588 391 
Q 1994 391 2212 530 
Q 2431 669 2431 922 
Q 2431 1156 2273 1281 
Q 2116 1406 1581 1522 
L 1381 1569 
Q 847 1681 609 1914 
Q 372 2147 372 2553 
Q 372 3047 722 3315 
Q 1072 3584 1716 3584 
Q 2034 3584 2315 3537 
Q 2597 3491 2834 3397 
z
" id="DejaVuSans-73" transform="scale(0.015625)"/>
      </defs>
      <use xlink:href="#DejaVuSans-63"/>
      <use x="54.980469" xlink:href="#DejaVuSans-6f"/>
      <use x="116.162109" xlink:href="#DejaVuSans-76"/>
      <use x="175.341797" xlink:href="#DejaVuSans-65"/>
      <use x="236.865234" xlink:href="#DejaVuSans-72"/>
      <use x="275.728516" xlink:href="#DejaVuSans-65"/>
      <use x="337.251953" xlink:href="#DejaVuSans-64"/>
      <use x="400.728516" xlink:href="#DejaVuSans-20"/>
      <use x="432.515625" xlink:href="#DejaVuSans-63"/>
      <use x="487.496094" xlink:href="#DejaVuSans-6f"/>
      <use x="548.677734" xlink:href="#DejaVuSans-64"/>
      <use x="612.154297" xlink:href="#DejaVuSans-65"/>
      <use x="673.677734" xlink:href="#DejaVuSans-20"/>
      <use x="705.464844" xlink:href="#DejaVuSans-6c"/>
      <use x="733.248047" xlink:href="#DejaVuSans-69"/>
      <use x="761.03125" xlink:href="#DejaVuSans-6e"/>
      <use x="824.410156" xlink:href="#DejaVuSans-65"/>
      <use x="885.933594" xlink:href="#DejaVuSans-73"/>
     </g>
    </g>
   </g>
   <g id="line2d_14">
    <path clip-path="url(#pd0c1a998fc)" d="M 73.832727 265.797818 
L 74.596192 265.797818 
L 74.709481 202.794821 
L 75.319835 202.794821 
L 75.433179 179.96464 
L 75.654457 179.915202 
L 75.767938 176.424923 
L 76.444592 176.330992 
L 76.557862 175.994818 
L 80.006262 175.955268 
L 80.119482 175.460894 
L 80.524699 175.460894 
L 80.638221 175.095058 
L 81.261142 174.986295 
L 81.374348 171.629497 
L 84.060352 171.599835 
L 84.173309 163.610754 
L 84.239097 163.610754 
L 84.352878 163.27458 
L 84.38432 163.27458 
L 84.497556 163.131212 
L 85.24665 163.131212 
L 85.359762 135.075499 
L 85.375578 135.075499 
L 85.488825 133.439122 
L 85.902046 133.434178 
L 86.036521 131.960944 
L 86.74408 131.960944 
L 86.857037 131.397358 
L 88.14903 131.372639 
L 88.262222 130.418498 
L 88.985733 130.418498 
L 89.098929 129.914236 
L 89.283207 129.914236 
L 89.396063 129.790643 
L 90.014763 129.775812 
L 90.127713 129.296269 
L 91.112253 129.192451 
L 91.225553 129.093576 
L 91.586123 129.063913 
L 91.699289 128.050447 
L 93.022548 127.971347 
L 93.135538 126.676088 
L 93.521612 126.6662 
L 93.633943 126.542607 
L 93.963538 126.542607 
L 94.077254 126.250927 
L 96.116266 126.250927 
L 96.229455 123.942201 
L 100.696866 123.877932 
L 100.809779 123.734564 
L 101.275026 123.734564 
L 101.387935 123.408277 
L 101.959622 123.304459 
L 102.075998 115.315378 
L 102.144506 115.315378 
L 102.257619 95.683795 
L 102.901342 95.594807 
L 103.012472 94.551679 
L 103.229295 94.551679 
L 103.342978 93.785399 
L 104.017163 93.785399 
L 104.130004 90.33467 
L 104.284951 90.280289 
L 104.398054 90.171527 
L 106.168231 90.127033 
L 106.281314 88.910874 
L 106.283944 88.910874 
L 106.397554 88.782336 
L 106.643311 88.782336 
L 106.756965 85.865531 
L 107.42218 85.806206 
L 107.53529 83.888036 
L 107.798621 83.843542 
L 107.911831 83.304675 
L 117.738292 83.2058 
L 117.851265 80.669662 
L 118.054352 80.669662 
L 118.167937 79.216203 
L 118.399991 79.216203 
L 118.512917 72.527326 
L 118.547127 72.527326 
L 118.66037 72.230702 
L 118.975964 72.191152 
L 119.089086 71.92419 
L 119.496383 71.894528 
L 119.609382 71.652284 
L 120.151874 71.583072 
L 120.287372 69.813214 
L 120.339749 69.719283 
L 120.452517 69.674789 
L 122.031148 69.580858 
L 122.144052 68.152118 
L 122.320084 68.152118 
L 122.43277 67.69235 
L 122.54067 67.69235 
L 122.653786 67.415501 
L 122.70095 67.415501 
L 122.813608 66.990339 
L 123.016488 66.990339 
L 123.128941 66.565178 
L 123.263999 66.565178 
L 123.376994 65.947211 
L 123.597401 65.942267 
L 123.710159 65.002957 
L 124.601157 65.002957 
L 124.714048 64.854645 
L 125.324813 64.790376 
L 125.437566 64.340496 
L 127.83301 64.320721 
L 127.948882 64.063647 
L 130.485699 64.048815 
L 130.598603 63.653316 
L 131.026654 63.559385 
L 131.139731 63.065012 
L 131.992504 62.980968 
L 132.105961 62.313563 
L 135.947608 62.234464 
L 136.060706 61.913121 
L 136.953801 61.903233 
L 137.066905 61.443465 
L 139.789698 61.369309 
L 139.902997 61.29021 
L 140.251529 61.29021 
L 140.364464 61.112235 
L 141.740014 61.057854 
L 141.85253 60.968867 
L 142.465675 60.958979 
L 142.578411 60.345956 
L 142.683351 60.345956 
L 142.795725 59.980119 
L 150.290669 59.980119 
L 150.403906 59.619226 
L 150.530305 59.574733 
L 150.643437 59.297883 
L 150.756659 59.090246 
L 150.935751 59.065527 
L 151.048952 58.625535 
L 151.654819 58.541491 
L 151.768108 58.373404 
L 152.531509 58.343742 
L 152.648956 58.007568 
L 152.825645 57.908693 
L 153.341751 57.874087 
L 153.454996 57.6269 
L 153.641914 57.537912 
L 153.754734 56.361303 
L 154.1599 56.321753 
L 154.271732 55.827379 
L 154.732725 55.807604 
L 154.845706 55.367611 
L 154.911553 55.258849 
L 155.024596 55.224243 
L 156.316454 55.130312 
L 156.428916 55.080875 
L 158.001601 54.986944 
L 158.114806 54.947394 
L 159.968141 54.922675 
L 160.081365 54.685376 
L 161.222432 54.591445 
L 161.335527 54.561782 
L 163.329527 54.527176 
L 163.442799 54.12179 
L 170.157679 54.017971 
L 170.270506 53.96359 
L 177.587303 53.864715 
L 177.700539 53.830109 
L 181.285132 53.731234 
L 181.398405 53.681797 
L 184.838235 53.607641 
L 184.951525 53.558203 
L 190.015215 53.47416 
L 190.128437 53.444497 
L 191.761262 53.404948 
L 191.872834 53.261579 
L 204.290681 53.251692 
L 204.403261 52.925405 
L 204.41102 52.925405 
L 204.523062 52.801811 
L 205.728658 52.801811 
L 205.841477 52.609006 
L 212.956963 52.564512 
L 213.070205 52.307438 
L 237.953087 52.282719 
L 238.066338 52.178901 
L 398.487273 52.154182 
L 398.487273 52.154182 
" style="fill:none;stroke:#ff0000;stroke-linecap:square;"/>
   </g>
   <g id="line2d_15">
    <path clip-path="url(#pd0c1a998fc)" d="M 73.832727 265.797818 
L 74.596192 265.797818 
L 74.709481 202.794821 
L 75.319835 202.794821 
L 75.433179 179.96464 
L 75.654457 179.915202 
L 75.767938 176.424923 
L 76.444592 176.330992 
L 76.557862 175.994818 
L 80.006262 175.955268 
L 80.119482 175.460894 
L 80.524699 175.460894 
L 80.638221 175.095058 
L 81.261142 174.986295 
L 81.374348 171.629497 
L 84.060352 171.599835 
L 84.173309 163.610754 
L 84.239097 163.610754 
L 84.352878 163.27458 
L 84.38432 163.27458 
L 84.497556 163.131212 
L 85.24665 163.131212 
L 85.359762 135.075499 
L 85.375578 135.075499 
L 85.488825 133.439122 
L 85.902046 133.434178 
L 86.036521 131.960944 
L 86.74408 131.960944 
L 86.857037 131.397358 
L 88.14903 131.372639 
L 88.262222 130.418498 
L 88.985733 130.418498 
L 89.098929 129.914236 
L 89.283207 129.914236 
L 89.396063 129.790643 
L 90.014763 129.775812 
L 90.127713 129.296269 
L 91.112253 129.192451 
L 91.225553 129.093576 
L 91.586123 129.063913 
L 91.699289 128.050447 
L 93.022548 127.971347 
L 93.135538 126.676088 
L 93.521612 126.6662 
L 93.633943 126.542607 
L 93.963538 126.542607 
L 94.077254 126.250927 
L 96.116266 126.250927 
L 96.229455 123.942201 
L 100.696866 123.877932 
L 100.809779 123.734564 
L 101.275026 123.734564 
L 101.387935 123.408277 
L 101.959622 123.304459 
L 102.075998 115.315378 
L 102.144506 115.315378 
L 102.257619 95.683795 
L 102.901342 95.594807 
L 103.012472 94.551679 
L 103.229295 94.551679 
L 103.342978 93.785399 
L 104.017163 93.785399 
L 104.130004 90.33467 
L 104.284951 90.280289 
L 104.398054 90.171527 
L 106.168231 90.127033 
L 106.281314 88.910874 
L 106.283944 88.910874 
L 106.397554 88.782336 
L 106.643311 88.782336 
L 106.756965 85.865531 
L 107.42218 85.806206 
L 107.53529 83.888036 
L 107.798621 83.843542 
L 107.911831 83.304675 
L 117.738292 83.2058 
L 117.851265 80.669662 
L 118.054352 80.669662 
L 118.167937 79.216203 
L 118.399991 79.216203 
L 118.512917 72.527326 
L 118.547127 72.527326 
L 118.66037 72.230702 
L 118.975964 72.191152 
L 119.089086 71.92419 
L 119.496383 71.894528 
L 119.609382 71.652284 
L 120.151874 71.583072 
L 120.287372 69.813214 
L 120.339749 69.719283 
L 120.452517 69.674789 
L 122.031148 69.580858 
L 122.144052 68.152118 
L 122.320084 68.152118 
L 122.43277 67.69235 
L 122.54067 67.69235 
L 122.653786 67.415501 
L 122.70095 67.415501 
L 122.813608 66.990339 
L 123.016488 66.990339 
L 123.128941 66.565178 
L 123.263999 66.565178 
L 123.376994 65.947211 
L 123.597401 65.942267 
L 123.710159 65.002957 
L 124.601157 65.002957 
L 124.714048 64.854645 
L 125.324813 64.790376 
L 125.437566 64.340496 
L 127.83301 64.320721 
L 127.948882 64.063647 
L 130.485699 64.048815 
L 130.598603 63.653316 
L 131.026654 63.559385 
L 131.139731 63.065012 
L 131.992504 62.980968 
L 132.105961 62.313563 
L 135.947608 62.234464 
L 136.060706 61.913121 
L 136.953801 61.903233 
L 137.066905 61.443465 
L 139.789698 61.369309 
L 139.902997 61.29021 
L 140.251529 61.29021 
L 140.364464 61.112235 
L 141.740014 61.057854 
L 141.85253 60.968867 
L 142.465675 60.958979 
L 142.578411 60.345956 
L 142.683351 60.345956 
L 142.795725 59.980119 
L 398.487273 59.980119 
L 398.487273 59.980119 
" style="fill:none;stroke:#008000;stroke-dasharray:3.7,1.6;stroke-dashoffset:0;"/>
   </g>
   <g id="patch_3">
    <path d="M 57.6 276.48 
L 57.6 41.472 
" style="fill:none;stroke:#000000;stroke-linecap:square;stroke-linejoin:miter;stroke-width:0.8;"/>
   </g>
   <g id="patch_4">
    <path d="M 414.72 276.48 
L 414.72 41.472 
" style="fill:none;stroke:#000000;stroke-linecap:square;stroke-linejoin:miter;stroke-width:0.8;"/>
   </g>
   <g id="patch_5">
    <path d="M 57.6 276.48 
L 414.72 276.48 
" style="fill:none;stroke:#000000;stroke-linecap:square;stroke-linejoin:miter;stroke-width:0.8;"/>
   </g>
   <g id="patch_6">
    <path d="M 57.6 41.472 
L 414.72 41.472 
" style="fill:none;stroke:#000000;stroke-linecap:square;stroke-linejoin:miter;stroke-width:0.8;"/>
   </g>
   <g id="text_16">
    <!-- RR vs RR+fuzzer -->
    <g transform="translate(185.594063 35.472)scale(0.12 -0.12)">
     <defs>
      <path d="M 2841 2188 
Q 3044 2119 3236 1894 
Q 3428 1669 3622 1275 
L 4263 0 
L 3584 0 
L 2988 1197 
Q 2756 1666 2539 1819 
Q 2322 1972 1947 1972 
L 1259 1972 
L 1259 0 
L 628 0 
L 628 4666 
L 2053 4666 
Q 2853 4666 3247 4331 
Q 3641 3997 3641 3322 
Q 3641 2881 3436 2590 
Q 3231 2300 2841 2188 
z
M 1259 4147 
L 1259 2491 
L 2053 2491 
Q 2509 2491 2742 2702 
Q 2975 2913 2975 3322 
Q 2975 3731 2742 3939 
Q 2509 4147 2053 4147 
L 1259 4147 
z
" id="DejaVuSans-52" transform="scale(0.015625)"/>
      <path d="M 2944 4013 
L 2944 2272 
L 4684 2272 
L 4684 1741 
L 2944 1741 
L 2944 0 
L 2419 0 
L 2419 1741 
L 678 1741 
L 678 2272 
L 2419 2272 
L 2419 4013 
L 2944 4013 
z
" id="DejaVuSans-2b" transform="scale(0.015625)"/>
      <path d="M 2375 4863 
L 2375 4384 
L 1825 4384 
Q 1516 4384 1395 4259 
Q 1275 4134 1275 3809 
L 1275 3500 
L 2222 3500 
L 2222 3053 
L 1275 3053 
L 1275 0 
L 697 0 
L 697 3053 
L 147 3053 
L 147 3500 
L 697 3500 
L 697 3744 
Q 697 4328 969 4595 
Q 1241 4863 1831 4863 
L 2375 4863 
z
" id="DejaVuSans-66" transform="scale(0.015625)"/>
      <path d="M 544 1381 
L 544 3500 
L 1119 3500 
L 1119 1403 
Q 1119 906 1312 657 
Q 1506 409 1894 409 
Q 2359 409 2629 706 
Q 2900 1003 2900 1516 
L 2900 3500 
L 3475 3500 
L 3475 0 
L 2900 0 
L 2900 538 
Q 2691 219 2414 64 
Q 2138 -91 1772 -91 
Q 1169 -91 856 284 
Q 544 659 544 1381 
z
M 1991 3584 
L 1991 3584 
z
" id="DejaVuSans-75" transform="scale(0.015625)"/>
      <path d="M 353 3500 
L 3084 3500 
L 3084 2975 
L 922 459 
L 3084 459 
L 3084 0 
L 275 0 
L 275 525 
L 2438 3041 
L 353 3041 
L 353 3500 
z
" id="DejaVuSans-7a" transform="scale(0.015625)"/>
     </defs>
     <use xlink:href="#DejaVuSans-52"/>
     <use x="69.482422" xlink:href="#DejaVuSans-52"/>
     <use x="138.964844" xlink:href="#DejaVuSans-20"/>
     <use x="170.751953" xlink:href="#DejaVuSans-76"/>
     <use x="229.931641" xlink:href="#DejaVuSans-73"/>
     <use x="282.03125" xlink:href="#DejaVuSans-20"/>
     <use x="313.818359" xlink:href="#DejaVuSans-52"/>
     <use x="383.300781" xlink:href="#DejaVuSans-52"/>
     <use x="452.783203" xlink:href="#DejaVuSans-2b"/>
     <use x="536.572266" xlink:href="#DejaVuSans-66"/>
     <use x="571.777344" xlink:href="#DejaVuSans-75"/>
     <use x="635.15625" xlink:href="#DejaVuSans-7a"/>
     <use x="687.646484" xlink:href="#DejaVuSans-7a"/>
     <use x="740.136719" xlink:href="#DejaVuSans-65"/>
     <use x="801.660156" xlink:href="#DejaVuSans-72"/>
    </g>
   </g>
   <g id="legend_1">
    <g id="patch_7">
     <path d="M 340.11875 276.51412 
L 413.12 276.51412 
Q 414.72 276.51412 414.72 274.91412 
L 414.72 252.22912 
Q 414.72 250.62912 413.12 250.62912 
L 340.11875 250.62912 
Q 338.51875 250.62912 338.51875 252.22912 
L 338.51875 274.91412 
Q 338.51875 276.51412 340.11875 276.51412 
z
" style="fill:#ffffff;opacity:0.8;stroke:#cccccc;stroke-linejoin:miter;"/>
    </g>
    <g id="line2d_16">
     <path d="M 341.71875 257.10787 
L 357.71875 257.10787 
" style="fill:none;stroke:#ff0000;stroke-linecap:square;"/>
    </g>
    <g id="line2d_17"/>
    <g id="text_17">
     <!-- RR + fuzzer -->
     <g transform="translate(364.11875 259.90787)scale(0.08 -0.08)">
      <use xlink:href="#DejaVuSans-52"/>
      <use x="69.482422" xlink:href="#DejaVuSans-52"/>
      <use x="138.964844" xlink:href="#DejaVuSans-20"/>
      <use x="170.751953" xlink:href="#DejaVuSans-2b"/>
      <use x="254.541016" xlink:href="#DejaVuSans-20"/>
      <use x="286.328125" xlink:href="#DejaVuSans-66"/>
      <use x="321.533203" xlink:href="#DejaVuSans-75"/>
      <use x="384.912109" xlink:href="#DejaVuSans-7a"/>
      <use x="437.402344" xlink:href="#DejaVuSans-7a"/>
      <use x="489.892578" xlink:href="#DejaVuSans-65"/>
      <use x="551.416016" xlink:href="#DejaVuSans-72"/>
     </g>
    </g>
    <g id="line2d_18">
     <path d="M 341.71875 268.85037 
L 357.71875 268.85037 
" style="fill:none;stroke:#008000;stroke-dasharray:3.7,1.6;stroke-dashoffset:0;"/>
    </g>
    <g id="line2d_19"/>
    <g id="text_18">
     <!-- RR -->
     <g transform="translate(364.11875 271.65037)scale(0.08 -0.08)">
      <use xlink:href="#DejaVuSans-52"/>
      <use x="69.482422" xlink:href="#DejaVuSans-52"/>
     </g>
    </g>
   </g>
  </g>
 </g>
 <defs>
  <clipPath id="pd0c1a998fc">
   <rect height="235.008" width="357.12" x="57.6" y="41.472"/>
  </clipPath>
 </defs>
</svg>
